<svg width="177" height="27" viewBox="0 0 177 27" fill="none" xmlns="http://www.w3.org/2000/svg">
<path d="M11.9388 0.545454H17.2584V18.294C17.2584 19.9347 16.8897 21.3598 16.1522 22.5696C15.423 23.7794 14.408 24.7115 13.1071 25.3661C11.8062 26.0207 10.294 26.348 8.57053 26.348C7.03763 26.348 5.64558 26.0787 4.3944 25.5401C3.1515 24.9933 2.16547 24.1647 1.4363 23.0543C0.707135 21.9357 0.346694 20.5312 0.35498 18.8409H5.71187C5.72844 19.5121 5.86516 20.0879 6.12203 20.5685C6.38718 21.0408 6.74762 21.4054 7.20335 21.6623C7.66736 21.9109 8.21424 22.0352 8.84397 22.0352C9.50685 22.0352 10.0662 21.8943 10.5219 21.6126C10.9859 21.3226 11.3381 20.9 11.5783 20.3448C11.8186 19.7897 11.9388 19.1061 11.9388 18.294V0.545454ZM33.8511 17.8714V6.90909H39.1458V26H34.0624V22.5323H33.8635C33.4326 23.6509 32.7159 24.55 31.7133 25.2294C30.719 25.9089 29.5051 26.2486 28.0716 26.2486C26.7956 26.2486 25.6728 25.9586 24.7033 25.3786C23.7339 24.7985 22.9757 23.9741 22.4288 22.9052C21.8903 21.8363 21.6168 20.5561 21.6085 19.0646V6.90909H26.9033V18.12C26.9116 19.2469 27.214 20.1377 27.8106 20.7923C28.4072 21.4469 29.2068 21.7741 30.2094 21.7741C30.8474 21.7741 31.444 21.6291 31.9992 21.3391C32.5543 21.0408 33.0018 20.6017 33.3415 20.0217C33.6895 19.4416 33.8594 18.7249 33.8511 17.8714ZM59.2652 12.353L54.4179 12.6513C54.3351 12.237 54.1569 11.8641 53.8835 11.5327C53.61 11.1929 53.2496 10.9237 52.8022 10.7248C52.363 10.5176 51.8368 10.4141 51.2237 10.4141C50.4034 10.4141 49.7115 10.5881 49.148 10.9361C48.5846 11.2758 48.3029 11.7315 48.3029 12.3033C48.3029 12.759 48.4852 13.1443 48.8497 13.4592C49.2143 13.774 49.8399 14.0268 50.7265 14.2173L54.1818 14.9134C56.0378 15.2945 57.4216 15.9077 58.3331 16.7528C59.2445 17.598 59.7002 18.7083 59.7002 20.0838C59.7002 21.335 59.3315 22.4329 58.5941 23.3775C57.8649 24.3221 56.8623 25.0595 55.5862 25.5898C54.3185 26.1119 52.856 26.3729 51.1988 26.3729C48.6716 26.3729 46.6581 25.8467 45.1583 24.7944C43.6669 23.7338 42.7927 22.292 42.5358 20.4691L47.7436 20.1957C47.901 20.9663 48.2822 21.5546 48.887 21.9606C49.4919 22.3583 50.2666 22.5572 51.2112 22.5572C52.1393 22.5572 52.885 22.379 53.4485 22.0227C54.0202 21.6581 54.3102 21.19 54.3185 20.6183C54.3102 20.1377 54.1072 19.7441 53.7095 19.4375C53.3117 19.1226 52.6986 18.8823 51.87 18.7166L48.5639 18.0579C46.6995 17.685 45.3116 17.0387 44.4002 16.119C43.497 15.1992 43.0454 14.0268 43.0454 12.6016C43.0454 11.3752 43.3768 10.3188 44.0397 9.43217C44.7109 8.54557 45.6514 7.86198 46.8611 7.38139C48.0791 6.9008 49.5043 6.66051 51.1367 6.66051C53.5479 6.66051 55.4454 7.1701 56.8291 8.18927C58.2212 9.20845 59.0332 10.5964 59.2652 12.353ZM73.1888 6.90909V10.8864H61.692V6.90909H73.1888ZM64.3021 2.33523H69.5968V20.1335C69.5968 20.6224 69.6714 21.0036 69.8205 21.277C69.9697 21.5421 70.1768 21.7286 70.442 21.8363C70.7154 21.944 71.0303 21.9979 71.3866 21.9979C71.6352 21.9979 71.8837 21.9772 72.1323 21.9357C72.3809 21.886 72.5715 21.8487 72.7041 21.8239L73.5368 25.7638C73.2716 25.8467 72.8988 25.942 72.4182 26.0497C71.9376 26.1657 71.3534 26.2362 70.6657 26.261C69.3897 26.3107 68.2711 26.1409 67.3099 25.7514C66.357 25.362 65.6154 24.7571 65.0851 23.9368C64.5548 23.1165 64.2938 22.0807 64.3021 20.8295V2.33523Z" fill="#5F6061"/>
<path d="M74.5715 4.9826V0.545454H95.4771V4.9826H87.6841V26H82.3645V4.9826H74.5715ZM96.838 26V6.90909H101.971V10.2401H102.17C102.518 9.05516 103.102 8.16027 103.923 7.5554C104.743 6.94223 105.687 6.63565 106.756 6.63565C107.021 6.63565 107.307 6.65222 107.614 6.68537C107.921 6.71851 108.19 6.76409 108.422 6.82209V11.5202C108.173 11.4457 107.829 11.3794 107.39 11.3214C106.951 11.2634 106.549 11.2344 106.185 11.2344C105.406 11.2344 104.71 11.4042 104.097 11.744C103.492 12.0754 103.011 12.5394 102.655 13.136C102.307 13.7326 102.133 14.4203 102.133 15.1992V26H96.838ZM116.056 26.3604C114.838 26.3604 113.753 26.1491 112.8 25.7266C111.847 25.2957 111.093 24.6618 110.538 23.8249C109.991 22.9798 109.718 21.9274 109.718 20.668C109.718 19.6074 109.912 18.7166 110.302 17.9957C110.691 17.2749 111.221 16.6948 111.893 16.2557C112.564 15.8165 113.326 15.4851 114.18 15.2614C115.041 15.0376 115.944 14.8802 116.889 14.7891C117.999 14.6731 118.894 14.5653 119.574 14.4659C120.253 14.3582 120.746 14.2008 121.053 13.9936C121.359 13.7865 121.513 13.4799 121.513 13.0739V12.9993C121.513 12.2121 121.264 11.6031 120.767 11.1722C120.278 10.7414 119.582 10.5259 118.679 10.5259C117.726 10.5259 116.968 10.7372 116.404 11.1598C115.841 11.5741 115.468 12.0961 115.286 12.7259L110.389 12.3281C110.637 11.1681 111.126 10.1655 111.855 9.32031C112.585 8.46686 113.525 7.81226 114.677 7.35653C115.837 6.89252 117.179 6.66051 118.704 6.66051C119.764 6.66051 120.779 6.7848 121.749 7.03338C122.727 7.28196 123.592 7.66726 124.346 8.18927C125.109 8.71129 125.71 9.38246 126.149 10.2028C126.588 11.0148 126.807 11.9884 126.807 13.1236V26H121.786V23.3526H121.637C121.33 23.9492 120.92 24.4754 120.406 24.9311C119.893 25.3786 119.275 25.7307 118.555 25.9876C117.834 26.2362 117.001 26.3604 116.056 26.3604ZM117.573 22.7063C118.352 22.7063 119.039 22.553 119.636 22.2464C120.232 21.9316 120.701 21.509 121.04 20.9787C121.38 20.4484 121.55 19.8477 121.55 19.1765V17.1506C121.384 17.2583 121.156 17.3577 120.866 17.4489C120.585 17.5317 120.266 17.6104 119.909 17.685C119.553 17.7513 119.197 17.8134 118.84 17.8714C118.484 17.9212 118.161 17.9667 117.871 18.0082C117.25 18.0993 116.707 18.2443 116.243 18.4432C115.779 18.642 115.418 18.9113 115.161 19.2511C114.905 19.5825 114.776 19.9968 114.776 20.494C114.776 21.2148 115.037 21.7659 115.559 22.147C116.089 22.5199 116.761 22.7063 117.573 22.7063ZM148.03 6.90909L141.356 26H135.39L128.715 6.90909H134.308L138.273 20.5685H138.472L142.424 6.90909H148.03ZM158.824 26.3729C156.861 26.3729 155.17 25.9751 153.753 25.1797C152.345 24.3759 151.259 23.2408 150.497 21.7741C149.735 20.2992 149.354 18.555 149.354 16.5415C149.354 14.5778 149.735 12.8543 150.497 11.3711C151.259 9.8879 152.332 8.73201 153.716 7.90341C155.108 7.07481 156.741 6.66051 158.613 6.66051C159.873 6.66051 161.045 6.86352 162.131 7.26953C163.224 7.66726 164.177 8.26799 164.989 9.07173C165.81 9.87547 166.448 10.8864 166.903 12.1044C167.359 13.3142 167.587 14.7311 167.587 16.3551V17.8093H151.466V14.5281H162.603C162.603 13.7657 162.437 13.0904 162.106 12.5021C161.774 11.9138 161.314 11.454 160.726 11.1225C160.146 10.7828 159.471 10.6129 158.7 10.6129C157.896 10.6129 157.184 10.7994 156.562 11.1722C155.949 11.5368 155.469 12.0298 155.121 12.6513C154.773 13.2644 154.594 13.948 154.586 14.7021V17.8217C154.586 18.7663 154.76 19.5825 155.108 20.2702C155.464 20.958 155.966 21.4883 156.612 21.8612C157.258 22.234 158.025 22.4205 158.911 22.4205C159.5 22.4205 160.038 22.3376 160.527 22.1719C161.016 22.0062 161.435 21.7576 161.783 21.4261C162.131 21.0947 162.396 20.6887 162.578 20.2081L167.475 20.5312C167.226 21.7079 166.717 22.7353 165.946 23.6136C165.184 24.4837 164.198 25.1631 162.988 25.652C161.787 26.1326 160.399 26.3729 158.824 26.3729ZM176.337 0.545454V26H171.042V0.545454H176.337Z" fill="#41C5CF"/>
</svg>
